<?xml version="1.0" encoding="UTF-8" standalone="no"?>
<!DOCTYPE svg PUBLIC "-//W3C//DTD SVG 1.1//EN" "http://www.w3.org/Graphics/SVG/1.1/DTD/svg11.dtd">
<svg width="100%" height="100%" viewBox="0 0 432 432" version="1.1" xmlns="http://www.w3.org/2000/svg" xmlns:xlink="http://www.w3.org/1999/xlink" xml:space="preserve" xmlns:serif="http://www.serif.com/" style="fill-rule:evenodd;clip-rule:evenodd;stroke-linejoin:round;stroke-miterlimit:2;">
    <g transform="matrix(0.24,0,0,0.24,0,0)">
        <g transform="matrix(2.00583,0.636728,-0.636728,2.00583,24.8284,-1712.69)">
            <path d="M768.438,623.628C770.643,622.355 773.36,622.355 775.565,623.628C811.623,644.446 1109.89,816.652 1145.95,837.47C1148.16,838.743 1149.51,841.097 1149.51,843.643L1149.51,1271.33C1149.51,1273.87 1148.16,1276.23 1145.95,1277.5C1109.89,1298.32 811.623,1470.52 775.565,1491.34C773.36,1492.62 770.643,1492.62 768.438,1491.34C732.38,1470.52 434.11,1298.32 398.052,1277.5C395.847,1276.23 394.488,1273.87 394.488,1271.33L394.488,843.643C394.488,841.097 395.847,838.743 398.052,837.47C434.11,816.652 732.38,644.446 768.438,623.628ZM931.899,972.754L612.722,972.754C607.335,972.754 602.361,975.644 599.692,980.323C597.023,985.003 597.069,990.755 599.812,995.392L759.401,1265.16C762.1,1269.72 767.009,1272.52 772.311,1272.52C777.613,1272.52 782.521,1269.72 785.221,1265.16L944.81,995.392C947.553,990.755 947.598,985.003 944.929,980.323C942.26,975.644 937.287,972.754 931.899,972.754Z" style="fill:rgb(189,41,255);"/>
        </g>
    </g>
</svg>
